<svg width="46" height="46" viewBox="0 0 46 46" fill="none" xmlns="http://www.w3.org/2000/svg">
<rect width="46" height="46" rx="23" fill="#059669"/>
<g clip-path="url(#clip0_4_14340)">
<g clip-path="url(#clip1_4_14340)">
<path fill-rule="evenodd" clip-rule="evenodd" d="M16.7538 13.5094L20.4205 17.1761C20.5997 17.3548 20.5997 17.6454 20.4205 17.8242C20.4205 17.8242 18.4955 19.7492 18.1105 20.1342C17.8643 20.3808 17.928 20.6489 17.9349 20.6741C18.1833 21.3978 18.8988 22.9877 20.8788 24.9677C22.8611 26.95 24.452 27.6646 25.1729 27.9121C25.3384 27.9689 25.5222 27.9263 25.6459 27.8025L28.0224 25.4261C28.2011 25.2469 28.4917 25.2469 28.6705 25.4261L32.3372 29.0927C32.5163 29.2715 32.5163 29.5621 32.3372 29.7408C32.3372 29.7408 31.0923 30.9857 30.2769 31.7974C29.7155 32.3588 28.9019 32.5904 28.1287 32.407C28.1273 32.4065 28.126 32.4061 28.1241 32.4056C26.3279 31.9591 22.5077 30.6428 18.8557 26.9908C15.2042 23.3393 13.8874 19.5191 13.4382 17.7238C13.4378 17.7219 13.4373 17.7201 13.4368 17.7183C13.2535 16.9446 13.484 16.1306 14.0464 15.5687L16.1057 13.5094C16.2844 13.3302 16.575 13.3302 16.7538 13.5094Z" fill="black"/>
</g>
</g>
<defs>
<clipPath id="clip0_4_14340">
<rect width="22" height="22" fill="white" transform="translate(12 12)"/>
</clipPath>
<clipPath id="clip1_4_14340">
<rect width="22" height="22" fill="white" transform="translate(12 12)"/>
</clipPath>
</defs>
</svg>
