<svg width="36" height="36" viewBox="0 0 36 36" fill="none" xmlns="http://www.w3.org/2000/svg">
<rect x="0.5" y="0.5" width="35" height="35" rx="17.5" fill="white"/>
<rect x="0.5" y="0.5" width="35" height="35" rx="17.5" stroke="#E2E8F0"/>
<path d="M19.3279 18.1919H21.0079L21.6639 15.5359H19.3279V14.1919C19.3279 13.8933 19.3439 13.6799 19.3759 13.5519C19.4292 13.3279 19.5465 13.1626 19.7279 13.0559C19.9412 12.9279 20.2559 12.8639 20.6719 12.8639H21.6639V10.6239C21.5359 10.6026 21.3012 10.5813 20.9599 10.5599C20.5439 10.5386 20.1439 10.5279 19.7599 10.5279C19.1519 10.5279 18.6159 10.6506 18.1519 10.8959C17.6879 11.1413 17.3279 11.4933 17.0719 11.9519C16.8052 12.4319 16.6719 13.0026 16.6719 13.6639V15.5359H14.6719V18.1919H16.6719V23.8719H19.3279V18.1919Z" fill="#1877F2"/>
</svg>
