<svg width="23" height="21" viewBox="0 0 23 21" fill="none" xmlns="http://www.w3.org/2000/svg">
<path fill-rule="evenodd" clip-rule="evenodd" d="M20.0625 0C21.1594 0 22.0563 0.856278 22.1212 1.93686L22.125 2.0625V20.0625C22.125 20.3732 21.8732 20.625 21.5625 20.625C21.2777 20.625 21.0424 20.4134 21.0051 20.1388L21 20.0625V2.0625C21 1.57709 20.6311 1.17785 20.1584 1.12984L20.0625 1.125H2.0625C1.57709 1.125 1.17785 1.49391 1.12984 1.96665L1.125 2.0625V20.0625C1.125 20.3732 0.87316 20.625 0.5625 20.625C0.277728 20.625 0.0423818 20.4134 0.005135 20.1388L0 20.0625V2.0625C0 0.965601 0.856278 0.0686967 1.93686 0.00376403L2.0625 0H20.0625ZM12.5625 18.75C12.8732 18.75 13.125 19.0018 13.125 19.3125C13.125 19.5973 12.9134 19.8326 12.6388 19.8699L12.5625 19.875H9.5625C9.25184 19.875 9 19.6232 9 19.3125C9 19.0277 9.21162 18.7924 9.48617 18.7551L9.5625 18.75H12.5625ZM18.5625 15C18.8732 15 19.125 15.2518 19.125 15.5625C19.125 15.8473 18.9134 16.0826 18.6388 16.1199L18.5625 16.125H3.5625C3.25184 16.125 3 15.8732 3 15.5625C3 15.2777 3.21162 15.0424 3.48617 15.0051L3.5625 15H18.5625ZM18.5625 11.25C18.8732 11.25 19.125 11.5018 19.125 11.8125C19.125 12.0973 18.9134 12.3326 18.6388 12.3699L18.5625 12.375H3.5625C3.25184 12.375 3 12.1232 3 11.8125C3 11.5277 3.21162 11.2924 3.48617 11.2551L3.5625 11.25H18.5625ZM18.5625 7.5C18.8732 7.5 19.125 7.75184 19.125 8.0625C19.125 8.34727 18.9134 8.58262 18.6388 8.61987L18.5625 8.625H3.5625C3.25184 8.625 3 8.37316 3 8.0625C3 7.77773 3.21162 7.54238 3.48617 7.50513L3.5625 7.5H18.5625ZM18.5625 3.75C18.8732 3.75 19.125 4.00184 19.125 4.3125C19.125 4.59727 18.9134 4.83262 18.6388 4.86987L18.5625 4.875H3.5625C3.25184 4.875 3 4.62316 3 4.3125C3 4.02773 3.21162 3.79238 3.48617 3.75513L3.5625 3.75H18.5625Z" fill="currentColor "/>
</svg>
