<svg width="60" height="60" viewBox="0 0 60 60" fill="none" xmlns="http://www.w3.org/2000/svg">
<g clip-path="url(#clip0_1_10350)">
<g clip-path="url(#clip1_1_10350)">
<path d="M30.2829 43.5963C29.9052 43.5971 29.5309 43.5245 29.181 43.3825C28.8324 43.2412 28.515 43.0329 28.2466 42.7694L25.2791 39.85C25.1008 39.6738 24.8894 39.5345 24.6572 39.44C24.4239 39.3449 24.1742 39.2963 23.9222 39.2969H19.7222C18.9616 39.297 18.2313 38.999 17.6879 38.4669C17.1485 37.9356 16.8441 37.2169 16.8441 36.4663V32.3375C16.8446 32.0893 16.7951 31.8436 16.6985 31.615C16.6014 31.3855 16.4594 31.1777 16.281 31.0038L13.3122 28.0844C13.046 27.8235 12.8343 27.5121 12.6897 27.1685C12.545 26.8249 12.4703 26.4559 12.4697 26.0831C12.4697 25.3331 12.7729 24.6131 13.3122 24.0819L16.281 21.1619C16.4604 20.9869 16.6022 20.7794 16.6985 20.5506C16.7954 20.3213 16.8447 20.0756 16.8435 19.8281V15.7C16.8446 15.3273 16.9198 14.9585 17.0647 14.6152C17.2097 14.2718 17.4215 13.9607 17.6879 13.7C18.2313 13.1675 18.9619 12.8692 19.7229 12.8694H23.9216C24.1735 12.87 24.4235 12.8213 24.656 12.7263C24.8891 12.6319 25.1004 12.4925 25.2785 12.3163L28.246 9.39813C28.7981 8.88203 29.5259 8.59534 30.2816 8.59625C31.0397 8.59625 31.7691 8.88375 32.3179 9.39813L35.2866 12.3169C35.6487 12.6719 36.1357 12.8705 36.6429 12.87H40.8429C41.6033 12.8698 42.3337 13.1675 42.8772 13.6994C43.4166 14.2306 43.7204 14.9494 43.721 15.7V19.8281C43.721 20.0763 43.7697 20.3219 43.8666 20.5506C43.9628 20.7794 44.1047 20.9875 44.2835 21.1619L47.2516 24.0819C47.5191 24.3444 47.731 24.6569 47.8754 25.0006C48.0198 25.3434 48.0942 25.7115 48.0942 26.0834C48.0942 26.4554 48.0198 26.8235 47.8754 27.1663C47.7301 27.5105 47.5181 27.8225 47.2516 28.0844L44.2835 31.0031C44.1047 31.1781 43.9628 31.3863 43.8666 31.6156C43.7703 31.8444 43.721 32.0894 43.721 32.3375V36.4663C43.7201 36.839 43.645 37.2079 43.5001 37.5514C43.3553 37.8948 43.1435 38.206 42.8772 38.4669C42.3336 38.9991 41.603 39.2971 40.8422 39.2969H36.6435C36.3917 39.2961 36.1423 39.3445 35.9091 39.4394C35.6768 39.534 35.4655 39.6735 35.2872 39.85L32.3179 42.7688C32.0504 43.0319 31.7335 43.2406 31.3841 43.3825C31.0343 43.5245 30.6603 43.5971 30.2829 43.5963ZM19.7229 13.8125C19.2157 13.8126 18.7289 14.0114 18.3666 14.3663C18.1892 14.5401 18.048 14.7475 17.9515 14.9763C17.8549 15.2052 17.8048 15.451 17.8041 15.6994V19.8275C17.805 20.1997 17.7308 20.5684 17.586 20.9113C17.4406 21.2557 17.2279 21.5676 16.9604 21.8288L13.9916 24.7488C13.814 24.9227 13.6727 25.1303 13.5761 25.3594C13.4796 25.5885 13.4296 25.8345 13.4291 26.0831C13.4291 26.5831 13.6316 27.0631 13.9916 27.4175L16.9604 30.3363C17.2291 30.5988 17.4416 30.9106 17.586 31.2538C17.731 31.5975 17.8047 31.9663 17.8035 32.3375V36.4663C17.8041 36.9663 18.0066 37.4463 18.366 37.8C18.7283 38.1547 19.2152 38.3533 19.7222 38.3531H23.9216C24.2996 38.3521 24.6741 38.425 25.0241 38.5675C25.3735 38.7094 25.6904 38.9188 25.9572 39.1825L28.9247 42.1013C29.2878 42.4553 29.7751 42.6532 30.2822 42.6525C30.791 42.6525 31.2791 42.4544 31.6397 42.1019L34.6085 39.1825C34.8761 38.918 35.1931 38.7088 35.5416 38.5669C35.8917 38.4246 36.2662 38.352 36.6441 38.3531H40.8429C41.3499 38.3533 41.8368 38.1547 42.1991 37.8C42.5591 37.4463 42.7616 36.9663 42.7616 36.4663V32.3375C42.7607 31.9653 42.8348 31.5966 42.9797 31.2538C43.1251 30.9095 43.3378 30.5978 43.6054 30.3369L46.5728 27.4175C46.7516 27.2425 46.8929 27.0344 46.9891 26.805C47.1347 26.4602 47.1728 26.0794 47.0986 25.7126C47.0243 25.3457 46.8411 25.0098 46.5728 24.7488L43.6054 21.8288C43.3366 21.5663 43.1241 21.255 42.9797 20.9113C42.8351 20.5683 42.7611 20.1997 42.7622 19.8275V15.6994C42.7615 15.451 42.7114 15.2052 42.6148 14.9763C42.5183 14.7475 42.3772 14.5401 42.1997 14.3663C41.8375 14.0113 41.3506 13.8125 40.8435 13.8125H36.6435C36.2658 13.8137 35.8915 13.7411 35.5416 13.5988C35.1931 13.4569 34.876 13.2477 34.6085 12.9831L31.6397 10.065C31.2716 9.72086 30.7862 9.5298 30.2822 9.53063C29.7766 9.53063 29.2904 9.72188 28.9247 10.065L25.9572 12.9838C25.6896 13.2481 25.3725 13.4571 25.0241 13.5988C24.674 13.7411 24.2995 13.8137 23.9216 13.8125H19.7229Z" fill="#263238"/>
<path d="M36.6766 40.4713C36.5497 40.4716 36.428 40.5219 36.3379 40.6113L33.3522 43.5588C32.9541 43.9513 32.4841 44.2634 31.9678 44.4781L36.0554 54.2219L38.6666 47.9975L44.9697 50.5756L40.7316 40.4713H36.6766ZM27.2104 43.5588L24.2247 40.6113C24.1802 40.5668 24.1274 40.5315 24.0693 40.5075C24.0112 40.4835 23.9489 40.4712 23.886 40.4713H19.8329L15.5947 50.5756L21.8979 47.9975L24.5091 54.2213L28.5966 44.4781C28.0796 44.2641 27.6089 43.9515 27.2104 43.5588Z" fill="#0067B2"/>
<path d="M35.8696 54.8463C35.7768 54.8464 35.686 54.8186 35.6091 54.7666C35.5323 54.7145 35.4728 54.6406 35.4383 54.5544L31.4802 44.8731C31.4434 44.7864 31.4331 44.6907 31.4504 44.5981C31.4678 44.5055 31.512 44.4201 31.5777 44.3525C31.6211 44.3083 31.6728 44.2731 31.7299 44.2491C31.787 44.2251 31.8483 44.2126 31.9102 44.2125C31.9723 44.2125 32.0338 44.2251 32.091 44.2495C32.1481 44.2738 32.1997 44.3095 32.2427 44.3544C32.2858 44.3994 32.3196 44.4525 32.3427 44.5106L35.8696 53.1356L37.9677 48.0081C38.0147 47.8927 38.1055 47.8006 38.2202 47.7519C38.2768 47.7281 38.3376 47.7158 38.399 47.7158C38.4604 47.7158 38.5211 47.7281 38.5777 47.7519L43.639 49.8788L39.9671 40.895C39.9301 40.8082 39.9196 40.7125 39.9368 40.6197C39.954 40.527 39.9983 40.4414 40.064 40.3738C40.1074 40.3295 40.1593 40.2943 40.2165 40.2703C40.2737 40.2462 40.3351 40.2338 40.3971 40.2338C40.4592 40.234 40.5205 40.2467 40.5775 40.2712C40.6346 40.2957 40.6861 40.3314 40.729 40.3763C40.7727 40.4206 40.8065 40.4738 40.829 40.5325L44.9346 50.5719C44.9694 50.6585 44.9784 50.7533 44.9603 50.8448C44.9422 50.9364 44.8979 51.0207 44.8327 51.0875C44.7676 51.1533 44.6844 51.1983 44.5937 51.2166C44.503 51.235 44.4089 51.2259 44.3233 51.1906L38.6515 48.81L36.3027 54.5563C36.2681 54.6428 36.2082 54.7168 36.1308 54.7686C36.0534 54.8205 35.9621 54.8478 35.869 54.8469L35.8696 54.8463ZM24.6927 54.8463C24.5999 54.8464 24.5091 54.8186 24.4323 54.7666C24.3554 54.7145 24.2959 54.6406 24.2615 54.5544L21.9115 48.8081L16.2408 51.1894C16.1553 51.2251 16.061 51.2343 15.9702 51.2158C15.8794 51.1973 15.7962 51.152 15.7315 51.0856C15.6656 51.0191 15.6209 50.9347 15.6028 50.8429C15.5846 50.751 15.594 50.6559 15.6296 50.5694L19.7333 40.53C19.755 40.4704 19.7884 40.4158 19.8316 40.3693C19.8747 40.3228 19.9268 40.2854 19.9846 40.2594C20.0716 40.2207 20.1683 40.2098 20.2617 40.2281C20.3551 40.2465 20.4406 40.2932 20.5065 40.3619C20.5508 40.4077 20.5855 40.4619 20.6084 40.5214C20.6313 40.5809 20.6419 40.6444 20.6396 40.7081C20.6377 40.7721 20.623 40.835 20.5965 40.8931L16.9246 49.8763L21.9858 47.7506C22.0426 47.7265 22.1036 47.7139 22.1652 47.7138C22.2269 47.7136 22.288 47.7258 22.3448 47.7496C22.4017 47.7734 22.4532 47.8084 22.4963 47.8525C22.5395 47.8966 22.5733 47.9489 22.5958 48.0063L24.694 53.1338L28.2202 44.5094C28.2675 44.3939 28.3585 44.3018 28.4733 44.2531C28.5587 44.2173 28.6529 44.2079 28.7436 44.2263C28.8343 44.2447 28.9174 44.29 28.9821 44.3563C29.0703 44.4454 29.1195 44.5659 29.119 44.6913C29.119 44.7538 29.1065 44.815 29.0833 44.8725L25.1258 54.5519C25.0919 54.6389 25.0324 54.7136 24.9552 54.7661C24.878 54.8186 24.7861 54.8466 24.6927 54.8463ZM30.2777 35.975C28.3345 35.9741 26.4361 35.3907 24.8277 34.3C23.21 33.202 21.9531 31.65 21.2152 29.8394C20.4726 28.0207 20.2786 26.0245 20.6571 24.0969C21.0329 22.1737 21.9665 20.4037 23.3415 19.0075C24.7073 17.6208 26.4562 16.6736 28.364 16.2875C30.2671 15.9038 32.239 16.1006 34.0315 16.8531C35.8294 17.6099 37.3618 18.8841 38.434 20.5138C39.6951 22.4298 40.2616 24.7202 40.039 27.0033C39.8165 29.2863 38.8183 31.4242 37.2108 33.0606C36.3055 33.981 35.2266 34.7126 34.0364 35.2128C32.8463 35.7131 31.5687 35.9722 30.2777 35.975ZM30.2777 17.0438C28.5227 17.0438 26.8065 17.5706 25.3471 18.5588C23.8833 19.5521 22.746 20.9562 22.0783 22.5944C21.4064 24.2398 21.2308 26.046 21.5733 27.79C21.9134 29.5299 22.7581 31.1313 24.0021 32.3944C25.2379 33.649 26.8204 34.5058 28.5465 34.855C30.2683 35.2025 32.0527 35.0238 33.674 34.3438C35.3007 33.6589 36.6872 32.5059 37.6571 31.0313C38.6335 29.5482 39.1535 27.8113 39.1527 26.0356C39.1525 23.6577 38.2178 21.3751 36.5502 19.68C35.7312 18.8474 34.755 18.1855 33.6783 17.7329C32.6015 17.2803 31.4457 17.0458 30.2777 17.0431V17.0438Z" fill="#263238"/>
<path d="M37.0453 26.7213C36.9518 26.7215 36.8604 26.6938 36.7828 26.6417C36.7051 26.5895 36.6449 26.5154 36.6097 26.4288C36.5862 26.3712 36.5741 26.3097 36.5741 26.2475C36.5731 24.6132 35.9269 23.0453 34.776 21.885C34.2084 21.3127 33.5334 20.8583 32.7897 20.5476C32.046 20.237 31.2482 20.0764 30.4422 20.075C30.3486 20.0752 30.2572 20.0474 30.1795 19.9952C30.1019 19.9429 30.0417 19.8686 30.0066 19.7819C29.9588 19.6657 29.9587 19.5353 30.0065 19.4191C30.0542 19.3029 30.1459 19.2103 30.2616 19.1613C30.3188 19.1373 30.3802 19.125 30.4422 19.125C31.3722 19.1269 32.2926 19.3125 33.1506 19.6711C34.0086 20.0296 34.7874 20.5541 35.4422 21.2144C36.7699 22.553 37.5155 24.3615 37.5172 26.2469C37.517 26.3405 37.4892 26.432 37.4374 26.51C37.3857 26.588 37.3121 26.649 37.226 26.6856C37.1687 26.7093 37.1073 26.7214 37.0453 26.7213ZM45.1235 7.67125H41.3491C41.2241 7.67125 41.1041 7.62125 41.0153 7.5325C40.9495 7.46599 40.9047 7.38156 40.8866 7.28975C40.8685 7.19794 40.8778 7.10283 40.9134 7.01628C40.949 6.92974 41.0093 6.8556 41.0868 6.80313C41.1643 6.75066 41.2555 6.72218 41.3491 6.72125H45.1241C45.2441 6.72997 45.3564 6.78379 45.4384 6.87191C45.5203 6.96003 45.5659 7.07591 45.5659 7.19625C45.5659 7.31659 45.5203 7.43247 45.4384 7.52059C45.3564 7.60871 45.2435 7.66254 45.1235 7.67125Z" fill="#263238"/>
<path d="M42.956 9.53375C42.8279 9.53398 42.7048 9.48471 42.6122 9.39625C42.5674 9.35346 42.5317 9.30207 42.5072 9.24515C42.4827 9.18824 42.47 9.12696 42.4697 9.065V5.315C42.4697 5.19125 42.521 5.07125 42.6122 4.98375C42.7047 4.89524 42.8279 4.84596 42.956 4.84625C43.0847 4.84625 43.2085 4.89625 43.2997 4.98375C43.391 5.07125 43.4422 5.19125 43.4422 5.315V9.065C43.4422 9.19 43.3903 9.30875 43.2997 9.39625C43.2072 9.48477 43.084 9.53404 42.956 9.53375ZM50.7335 12.3463H46.8441C46.7161 12.3465 46.5929 12.2973 46.5003 12.2088C46.4555 12.166 46.4198 12.1146 46.3953 12.0577C46.3708 12.0008 46.3581 11.9395 46.3578 11.8775C46.3578 11.7531 46.4091 11.6338 46.5003 11.5463C46.5929 11.4577 46.7161 11.4085 46.8441 11.4088H50.7335C50.8622 11.4088 50.986 11.4588 51.0772 11.5463C51.1685 11.6338 51.2197 11.7531 51.2197 11.8775C51.2197 12.0025 51.1685 12.1213 51.0772 12.2088C50.9847 12.2973 50.8615 12.3465 50.7335 12.3463Z" fill="#263238"/>
<path d="M48.9234 13.9388C48.7974 13.9391 48.6764 13.8896 48.5866 13.8013C48.5424 13.7576 48.5074 13.7056 48.4834 13.6484C48.4595 13.5911 48.4472 13.5296 48.4472 13.4675V9.69376C48.4472 9.56876 48.4972 9.44876 48.5866 9.36001C48.6762 9.27124 48.7973 9.22144 48.9234 9.22144C49.0496 9.22144 49.1707 9.27124 49.2603 9.36001C49.3046 9.40361 49.3397 9.45556 49.3638 9.51285C49.3878 9.57014 49.4002 9.63164 49.4003 9.69376V13.4688C49.4003 13.5938 49.3497 13.7131 49.2603 13.8019C49.1703 13.8904 49.049 13.9398 48.9228 13.9394L48.9234 13.9388ZM11.7016 34.2213H4.55469C4.42868 34.2216 4.30764 34.1721 4.21782 34.0838C4.17367 34.0401 4.13863 33.9881 4.11471 33.9308C4.09079 33.8736 4.07848 33.8121 4.07848 33.75C4.07848 33.6879 4.09079 33.6265 4.11471 33.5692C4.13863 33.5119 4.17367 33.4599 4.21782 33.4163C4.30769 33.3275 4.429 33.2779 4.55532 33.2781H11.7016C11.8278 33.2781 11.9491 33.3281 12.0384 33.4156C12.0827 33.4592 12.1178 33.5112 12.1417 33.5685C12.1657 33.6258 12.178 33.6873 12.178 33.7494C12.178 33.8115 12.1657 33.873 12.1417 33.9303C12.1178 33.9876 12.0827 34.0395 12.0384 34.0831C11.9486 34.1719 11.8279 34.2215 11.7016 34.2213ZM2.64907 34.2213H1.69657C1.57034 34.2217 1.44904 34.1723 1.35907 34.0838C1.31492 34.0401 1.27988 33.9881 1.25596 33.9308C1.23204 33.8736 1.21973 33.8121 1.21973 33.75C1.21973 33.6879 1.23204 33.6265 1.25596 33.5692C1.27988 33.5119 1.31492 33.4599 1.35907 33.4163C1.44894 33.3275 1.57025 33.2779 1.69657 33.2781H2.64907C2.77594 33.2781 2.89719 33.3281 2.98657 33.4156C3.03078 33.4592 3.0659 33.5112 3.08986 33.5685C3.11383 33.6258 3.12617 33.6873 3.12617 33.7494C3.12617 33.8115 3.11383 33.873 3.08986 33.9303C3.0659 33.9876 3.03078 34.0395 2.98657 34.0831C2.89669 34.1719 2.77538 34.2215 2.64907 34.2213ZM56.0097 34.2213H48.8622C48.7362 34.2216 48.6151 34.1721 48.5253 34.0838C48.4812 34.0401 48.4461 33.9881 48.4222 33.9308C48.3983 33.8736 48.386 33.8121 48.386 33.75C48.386 33.6879 48.3983 33.6265 48.4222 33.5692C48.4461 33.5119 48.4812 33.4599 48.5253 33.4163C48.6152 33.3275 48.7365 33.2779 48.8628 33.2781H56.0091C56.1353 33.2781 56.2566 33.3281 56.3459 33.4156C56.3902 33.4592 56.4253 33.5112 56.4492 33.5685C56.4732 33.6258 56.4855 33.6873 56.4855 33.7494C56.4855 33.8115 56.4732 33.873 56.4492 33.9303C56.4253 33.9876 56.3902 34.0395 56.3459 34.0831C56.2561 34.1719 56.1348 34.2215 56.0084 34.2213H56.0097ZM58.8678 34.2213H57.9153C57.7891 34.2217 57.6678 34.1723 57.5778 34.0838C57.5337 34.0401 57.4986 33.9881 57.4747 33.9308C57.4508 33.8736 57.4385 33.8121 57.4385 33.75C57.4385 33.6879 57.4508 33.6265 57.4747 33.5692C57.4986 33.5119 57.5337 33.4599 57.5778 33.4163C57.6677 33.3275 57.789 33.2779 57.9153 33.2781H58.8678C58.9947 33.2781 59.1159 33.3281 59.2053 33.4156C59.2495 33.4592 59.2846 33.5112 59.3086 33.5685C59.3326 33.6258 59.3449 33.6873 59.3449 33.7494C59.3449 33.8115 59.3326 33.873 59.3086 33.9303C59.2846 33.9876 59.2495 34.0395 59.2053 34.0831C59.1154 34.1719 58.9941 34.2215 58.8678 34.2213Z" fill="#263238"/>
</g>
</g>
<defs>
<clipPath id="clip0_1_10350">
<rect width="60" height="60" fill="white"/>
</clipPath>
<clipPath id="clip1_1_10350">
<rect width="60" height="60" fill="white"/>
</clipPath>
</defs>
</svg>
