<svg width="17" height="13" viewBox="0 0 17 13" fill="none" xmlns="http://www.w3.org/2000/svg">
<path d="M16.506 0.450012C16.278 0.150012 15.978 1.23978e-05 15.606 1.23978e-05H0.612C0.456 1.23978e-05 0.315 0.0570126 0.189 0.171012C0.063 0.285012 0 0.435012 0 0.621013C0 0.807013 0.054 0.951013 0.162 1.05301C0.27 1.15501 0.42 1.20601 0.612 1.20601H4.212L3.69 7.36201C3.642 7.65001 3.669 7.93501 3.771 8.21701C3.873 8.49901 4.02 8.73601 4.212 8.92801C4.596 9.38401 5.094 9.61201 5.706 9.61201H13.284C13.764 9.61201 14.193 9.45901 14.571 9.15301C14.949 8.84701 15.192 8.44801 15.3 7.95601L16.74 1.51201C16.812 1.10401 16.734 0.750012 16.506 0.450012ZM14.256 7.65001C14.22 7.86601 14.106 8.04601 13.914 8.19001C13.722 8.33401 13.512 8.40601 13.284 8.40601H5.706C5.55 8.40601 5.418 8.38201 5.31 8.33401C5.202 8.28601 5.112 8.20801 5.04 8.10001C4.944 7.96801 4.878 7.85401 4.842 7.75801C4.782 7.62601 4.77 7.49401 4.806 7.36201L5.4 1.13401H15.678L15.75 1.20601L14.256 7.65001ZM6.228 10.278C5.964 10.278 5.724 10.377 5.508 10.575C5.292 10.773 5.184 11.004 5.184 11.268C5.184 11.532 5.286 11.772 5.49 11.988C5.694 12.204 5.943 12.312 6.237 12.312C6.531 12.312 6.78 12.21 6.984 12.006C7.188 11.802 7.29 11.55 7.29 11.25C7.29 10.998 7.179 10.773 6.957 10.575C6.735 10.377 6.492 10.278 6.228 10.278ZM6.156 11.25C6.156 11.214 6.168 11.19 6.192 11.178H6.228L6.3 11.25C6.3 11.334 6.276 11.376 6.228 11.376C6.18 11.376 6.156 11.334 6.156 11.25ZM12.69 10.278C12.414 10.278 12.168 10.377 11.952 10.575C11.736 10.773 11.628 11.004 11.628 11.268C11.628 11.532 11.73 11.772 11.934 11.988C12.138 12.204 12.39 12.312 12.69 12.312C12.954 12.312 13.182 12.21 13.374 12.006C13.566 11.802 13.662 11.55 13.662 11.25C13.662 10.986 13.566 10.758 13.374 10.566C13.182 10.374 12.954 10.278 12.69 10.278ZM12.528 11.25C12.528 11.214 12.54 11.193 12.564 11.187C12.588 11.181 12.63 11.178 12.69 11.178C12.726 11.178 12.75 11.19 12.762 11.214V11.25C12.762 11.334 12.723 11.376 12.645 11.376C12.567 11.376 12.528 11.334 12.528 11.25Z" fill="currentColor"/>
</svg>
