<svg width="53" height="15" viewBox="0 0 53 15" fill="none" xmlns="http://www.w3.org/2000/svg">
<g clip-path="url(#clip0_1_1379)">
<g clip-path="url(#clip1_1_1379)">
<g clip-path="url(#clip2_1_1379)">
<mask id="mask0_1_1379" style="mask-type:luminance" maskUnits="userSpaceOnUse" x="0" y="0" width="53" height="15">
<path d="M53 0H0V15H53V0Z" fill="white"/>
</mask>
<g mask="url(#mask0_1_1379)">
<mask id="mask1_1_1379" style="mask-type:luminance" maskUnits="userSpaceOnUse" x="0" y="0" width="53" height="15">
<path d="M52.5 0.600098H0V14.6001H52.5V0.600098Z" fill="white"/>
</mask>
<g mask="url(#mask1_1_1379)">
<path d="M6.63753 0.712891H2.61253C2.33753 0.712891 2.10003 0.912882 2.06253 1.18788L0.437533 11.4878C0.400033 11.6878 0.562533 11.8753 0.775033 11.8753H2.70003C2.97503 11.8753 3.21253 11.6754 3.25003 11.4004L3.68753 8.62538C3.72503 8.35038 3.96253 8.15039 4.23753 8.15039H5.50003C8.15003 8.15039 9.67503 6.8754 10.0751 4.3254C10.2501 3.2129 10.0876 2.33789 9.56253 1.72539C8.98753 1.07539 7.97503 0.712891 6.63753 0.712891ZM7.10003 4.48789C6.87503 5.92539 5.77503 5.92539 4.71253 5.92539H4.10003L4.52503 3.23789C4.55003 3.07539 4.68753 2.9504 4.85003 2.9504H5.12503C5.85003 2.9504 6.53753 2.95039 6.88753 3.36289C7.11253 3.61289 7.17503 3.97539 7.10003 4.48789Z" fill="#283B82"/>
<path d="M18.6501 4.43799H16.7251C16.5626 4.43799 16.4251 4.563 16.4001 4.7255L16.3126 5.26301L16.1751 5.06299C15.7626 4.46299 14.8251 4.25049 13.9001 4.25049C11.7751 4.25049 9.96256 5.86299 9.60006 8.12549C9.41256 9.25049 9.67506 10.3255 10.3126 11.088C10.9001 11.7755 11.7376 12.0629 12.7376 12.0629C14.4501 12.0629 15.4001 10.963 15.4001 10.963L15.3126 11.5004C15.2751 11.7004 15.4376 11.888 15.6376 11.888H17.3751C17.6501 11.888 17.8876 11.688 17.9251 11.413L18.9626 4.82551C19.0126 4.62551 18.8501 4.43799 18.6501 4.43799ZM15.9626 8.18799C15.7751 9.28799 14.9001 10.0255 13.7876 10.0255C13.2251 10.0255 12.7876 9.85049 12.5001 9.50049C12.2126 9.16299 12.1126 8.688 12.2001 8.1505C12.3751 7.063 13.2626 6.3005 14.3626 6.3005C14.9126 6.3005 15.3501 6.48801 15.6501 6.82551C15.9251 7.16301 16.0501 7.65049 15.9626 8.18799Z" fill="#283B82"/>
<path d="M28.9001 4.43799H26.9626C26.7751 4.43799 26.6001 4.52549 26.5001 4.68799L23.8376 8.613L22.7126 4.838C22.6376 4.6005 22.4251 4.43799 22.1751 4.43799H20.2751C20.0501 4.43799 19.8876 4.66299 19.9626 4.87549L22.0876 11.1254L20.0876 13.9504C19.9251 14.1754 20.0876 14.4754 20.3626 14.4754H22.3001C22.4876 14.4754 22.6501 14.3879 22.7626 14.2379L29.2001 4.95051C29.3251 4.73801 29.1626 4.43799 28.9001 4.43799Z" fill="#283B82"/>
<path d="M35.3 0.712891H31.275C31 0.712891 30.7625 0.912882 30.725 1.18788L29.1 11.4878C29.0625 11.6878 29.225 11.8753 29.425 11.8753H31.5C31.6875 11.8753 31.85 11.7378 31.8875 11.5503L32.35 8.62538C32.3875 8.35038 32.625 8.15039 32.9 8.15039H34.175C36.825 8.15039 38.35 6.8754 38.75 4.3254C38.925 3.2129 38.7625 2.33789 38.2375 1.72539C37.6625 1.07539 36.65 0.712891 35.3 0.712891ZM35.7625 4.48789C35.5375 5.92539 34.4375 5.92539 33.375 5.92539H32.775L33.2 3.23789C33.225 3.07539 33.3625 2.9504 33.525 2.9504H33.8C34.525 2.9504 35.2125 2.95039 35.5625 3.36289C35.775 3.61289 35.8375 3.97539 35.7625 4.48789Z" fill="#469BDB"/>
<path d="M47.3125 4.43799H45.3875C45.225 4.43799 45.0875 4.563 45.0625 4.7255L44.975 5.26301L44.8375 5.06299C44.425 4.46299 43.4875 4.25049 42.5625 4.25049C40.4375 4.25049 38.625 5.86299 38.2625 8.12549C38.075 9.25049 38.3375 10.3255 38.975 11.088C39.5625 11.7755 40.4 12.0629 41.4 12.0629C43.1125 12.0629 44.0625 10.963 44.0625 10.963L43.975 11.5004C43.9375 11.7004 44.1 11.888 44.3125 11.888H46.05C46.325 11.888 46.5625 11.688 46.6 11.413L47.6375 4.82551C47.675 4.62551 47.5125 4.43799 47.3125 4.43799ZM44.625 8.18799C44.4375 9.28799 43.5625 10.0255 42.45 10.0255C41.8875 10.0255 41.45 9.85049 41.1625 9.50049C40.875 9.16299 40.775 8.688 40.8625 8.1505C41.0375 7.063 41.925 6.3005 43.025 6.3005C43.575 6.3005 44.0125 6.48801 44.3125 6.82551C44.6 7.16301 44.7125 7.65049 44.625 8.18799Z" fill="#469BDB"/>
<path d="M49.5751 1.00046L47.9251 11.5004C47.8876 11.7004 48.0501 11.8879 48.2501 11.8879H49.9126C50.1876 11.8879 50.4251 11.6879 50.4626 11.4129L52.0876 1.11297C52.1251 0.912968 51.9626 0.725471 51.7626 0.725471H49.9001C49.7501 0.712971 49.6126 0.837965 49.5751 1.00046Z" fill="#469BDB"/>
</g>
</g>
</g>
</g>
</g>
<defs>
<clipPath id="clip0_1_1379">
<rect width="53" height="15" fill="white"/>
</clipPath>
<clipPath id="clip1_1_1379">
<rect width="53" height="15" fill="white"/>
</clipPath>
<clipPath id="clip2_1_1379">
<rect width="53" height="15" fill="white"/>
</clipPath>
</defs>
</svg>
