<svg width="36" height="36" viewBox="0 0 36 36" fill="none" xmlns="http://www.w3.org/2000/svg">
<rect x="0.5" y="0.5" width="35" height="35" rx="17.5" fill="white"/>
<rect x="0.5" y="0.5" width="35" height="35" rx="17.5" stroke="#E2E8F0"/>
<path d="M18.9129 10.5919C17.8249 10.4426 16.7689 10.5546 15.7449 10.9279C14.7529 11.2906 13.8889 11.8559 13.1529 12.6239C12.4062 13.4133 11.8835 14.3359 11.5849 15.3919C11.2862 16.4479 11.2542 17.5093 11.4889 18.5759C11.7022 19.6106 12.1395 20.5439 12.8009 21.3759C13.4835 22.2293 14.3262 22.8746 15.3289 23.3119C15.2969 22.7786 15.3342 22.2666 15.4409 21.7759L16.3049 18.1439C16.1555 17.7813 16.0862 17.4293 16.0969 17.0879C16.0969 16.5973 16.2195 16.1866 16.4649 15.8559C16.7102 15.5253 17.0142 15.3599 17.3769 15.3599C17.6435 15.3599 17.8675 15.4613 18.0489 15.6639C18.2302 15.8666 18.3049 16.1013 18.2729 16.3679C18.2729 16.5386 18.2409 16.7573 18.1769 17.0239C18.1342 17.1946 18.0542 17.4559 17.9369 17.8079C17.8195 18.2133 17.7342 18.5173 17.6809 18.7199C17.6382 18.8799 17.6355 19.0399 17.6729 19.1999C17.7102 19.3599 17.7822 19.5039 17.8889 19.6319C17.9955 19.7599 18.1209 19.8586 18.2649 19.9279C18.4089 19.9973 18.5662 20.0266 18.7369 20.0159C19.1422 20.0159 19.5102 19.8506 19.8409 19.5199C20.1609 19.2106 20.4089 18.7866 20.5849 18.2479C20.7609 17.7093 20.8489 17.1199 20.8489 16.4799C20.8489 15.9786 20.7422 15.5359 20.5289 15.1519C20.3155 14.7679 20.0062 14.4639 19.6009 14.2399C19.1742 14.0159 18.6675 13.9039 18.0809 13.9039C17.6435 13.8826 17.2249 13.9519 16.8249 14.1119C16.4249 14.2719 16.0702 14.5039 15.7609 14.8079C15.4515 15.1119 15.2115 15.4639 15.0409 15.8639C14.8702 16.2639 14.7902 16.6773 14.8009 17.1039C14.7795 17.6053 14.9235 18.0426 15.2329 18.4159C15.2862 18.4586 15.3235 18.5146 15.3449 18.5839C15.3662 18.6533 15.3662 18.7199 15.3449 18.7839L15.2009 19.3119C15.1902 19.3759 15.1502 19.4293 15.0809 19.4719C15.0115 19.5146 14.9395 19.5199 14.8649 19.4879C14.4169 19.3066 14.0755 18.9759 13.8409 18.4959C13.6169 18.0586 13.5049 17.5359 13.5049 16.9279C13.5049 16.2666 13.6809 15.6266 14.0329 15.0079C14.4169 14.3466 14.9449 13.8186 15.6169 13.4239C16.3849 12.9866 17.2702 12.7679 18.2729 12.7679C19.0835 12.7679 19.8195 12.9546 20.4809 13.3279C21.0995 13.6693 21.5875 14.1333 21.9449 14.7199C22.3022 15.3066 22.4809 15.9306 22.4809 16.5919C22.4809 17.4559 22.3315 18.2373 22.0329 18.9359C21.7342 19.6346 21.3129 20.1759 20.7689 20.5599C20.2142 20.9653 19.5849 21.1679 18.8809 21.1679C18.5609 21.1786 18.2542 21.1093 17.9609 20.9599C17.6675 20.8106 17.4302 20.6026 17.2489 20.3359L16.7849 22.1599C16.6462 22.6399 16.4222 23.1146 16.1129 23.5839C16.7209 23.7759 17.3555 23.8719 18.0169 23.8719C18.8915 23.8719 19.7369 23.7039 20.5529 23.3679C21.3689 23.0319 22.0915 22.5493 22.7209 21.9199C23.3502 21.2906 23.8329 20.5653 24.1689 19.7439C24.5049 18.9226 24.6729 18.0746 24.6729 17.1999C24.6729 16.1013 24.4169 15.0719 23.9049 14.1119C23.4142 13.1733 22.7369 12.3946 21.8729 11.7759C20.9875 11.1359 20.0009 10.7413 18.9129 10.5919Z" fill="#BD081C"/>
</svg>
