<svg width="41" height="15" viewBox="0 0 41 15" fill="none" xmlns="http://www.w3.org/2000/svg">
<g clip-path="url(#clip0_1_1397)">
<g clip-path="url(#clip1_1_1397)">
<mask id="mask0_1_1397" style="mask-type:luminance" maskUnits="userSpaceOnUse" x="0" y="0" width="41" height="15">
<path d="M41 0H0V15H41V0Z" fill="white"/>
</mask>
<g mask="url(#mask0_1_1397)">
<mask id="mask1_1_1397" style="mask-type:luminance" maskUnits="userSpaceOnUse" x="0" y="0" width="41" height="15">
<path d="M40.5 0.600098H0.5V14.6001H40.5V0.600098Z" fill="white"/>
</mask>
<g mask="url(#mask1_1_1397)">
<path d="M29.3 3.9998C30.2 3.9998 30.9 3.2998 30.9 2.3998C30.9 1.4998 30.2 0.799805 29.3 0.799805C28.4 0.799805 27.7 1.4998 27.7 2.3998C27.6 3.2998 28.3 3.9998 29.3 3.9998C29.3 4.0998 29.3 4.0998 29.3 3.9998ZM16.7 4.8998C16.6 5.0998 16.1 6.5998 14.8 8.1998V1.4998L11.4 2.1998V14.2998H14.8V10.5998C15.8 12.0998 16.3 14.2998 16.3 14.2998H20.4C20 12.5998 18.2 9.4998 18.2 9.4998C19.3 8.0998 20.1 6.5998 20.6 4.9998L16.7 4.8998ZM25.7 4.7998C22.6 4.8998 21.1 6.2998 21.1 8.9998V14.2998H24.5V9.99983C24.5 8.3998 24.7 7.6998 26.7 7.5998V4.8998C26.3 4.7998 25.7 4.7998 25.7 4.7998ZM5.6 6.2998C5.2 6.2998 4.2 6.1998 4.2 5.2998C4.2 4.1998 5.6 4.1998 6.1 4.1998C7 4.1998 8.2 4.4998 9.1 4.6998C9.4 4.7998 9.7 4.8998 10 4.9998V2.1998H9.9C8.9 1.7998 7.7 1.4998 5.5 1.4998C1.8 1.4998 0.5 3.6998 0.5 5.5998C0.5 6.6998 1 9.1998 5.3 9.4998C5.7 9.4998 6.6 9.5998 6.6 10.4998C6.6 11.1998 5.8 11.6998 4.5 11.6998C3 11.6998 1.6 11.2998 0.8 10.9998V13.9998C2.1 14.2998 3.5 14.4998 5.2 14.4998C8.9 14.4998 10.5 12.3998 10.5 10.3998C10.5 7.9998 8.7 6.4998 5.6 6.2998ZM27.6 14.2998H30.9V4.8998H27.6V14.2998ZM37.2 2.0998V14.2998H40.5V1.4998L37.2 2.0998ZM32.3 2.0998L35.6 1.4998V14.2998H32.3V2.0998Z" fill="#862565"/>
</g>
</g>
</g>
</g>
<defs>
<clipPath id="clip0_1_1397">
<rect width="41" height="15" fill="white"/>
</clipPath>
<clipPath id="clip1_1_1397">
<rect width="41" height="15" fill="white"/>
</clipPath>
</defs>
</svg>
