<svg width="36" height="36" viewBox="0 0 36 36" fill="none" xmlns="http://www.w3.org/2000/svg">
<rect x="0.5" y="0.5" width="35" height="35" rx="17.5" fill="white"/>
<rect x="0.5" y="0.5" width="35" height="35" rx="17.5" stroke="#E2E8F0"/>
<path d="M24.8168 12.976C24.3048 13.2 23.7661 13.344 23.2008 13.408C23.4995 13.2373 23.7528 13.0186 23.9608 12.752C24.1688 12.4853 24.3261 12.192 24.4328 11.872C23.8995 12.192 23.3075 12.416 22.6568 12.544C22.4008 12.2666 22.0941 12.0506 21.7368 11.896C21.3795 11.7413 21.0088 11.664 20.6248 11.664C20.1235 11.664 19.6595 11.7893 19.2328 12.04C18.8061 12.2906 18.4675 12.6293 18.2168 13.056C17.9661 13.4826 17.8408 13.9466 17.8408 14.448C17.8408 14.64 17.8675 14.8533 17.9208 15.088C16.7795 15.0346 15.7021 14.7466 14.6888 14.224C13.7075 13.712 12.8648 13.0293 12.1608 12.176C11.9155 12.6026 11.7928 13.0666 11.7928 13.568C11.7928 14.048 11.9048 14.4906 12.1288 14.896C12.3528 15.3013 12.6515 15.632 13.0248 15.888C12.6088 15.888 12.1875 15.776 11.7608 15.552V15.584C11.7608 16.0213 11.8568 16.4346 12.0488 16.824C12.2408 17.2133 12.5075 17.5386 12.8488 17.8C13.1901 18.0613 13.5741 18.2346 14.0008 18.32C13.7661 18.384 13.5208 18.416 13.2648 18.416C13.0941 18.416 12.9181 18.4 12.7368 18.368C12.9181 18.9226 13.2488 19.3813 13.7288 19.744C14.2088 20.1066 14.7475 20.2933 15.3448 20.304C14.8541 20.688 14.3128 20.9813 13.7208 21.184C13.1288 21.3866 12.5181 21.488 11.8888 21.488C11.7395 21.488 11.5155 21.4773 11.2168 21.456C11.8568 21.8613 12.5395 22.1706 13.2648 22.384C13.9901 22.5973 14.7315 22.704 15.4888 22.704C16.7261 22.704 17.8621 22.464 18.8968 21.984C19.8461 21.5466 20.6728 20.928 21.3768 20.128C22.0381 19.3813 22.5501 18.528 22.9128 17.568C23.2541 16.64 23.4248 15.7066 23.4248 14.768V14.416C23.9688 14.0106 24.4328 13.5306 24.8168 12.976Z" fill="black"/>
</svg>
