<svg width="36" height="13" viewBox="0 0 36 13" fill="none" xmlns="http://www.w3.org/2000/svg">
<g clip-path="url(#clip0_1_1368)">
<g clip-path="url(#clip1_1_1368)">
<mask id="mask0_1_1368" style="mask-type:luminance" maskUnits="userSpaceOnUse" x="0" y="0" width="36" height="13">
<path d="M36 0H0V13H36V0Z" fill="white"/>
</mask>
<g mask="url(#mask0_1_1368)">
<mask id="mask1_1_1368" style="mask-type:luminance" maskUnits="userSpaceOnUse" x="0" y="0" width="36" height="13">
<path d="M36 0.600098H0V12.6001H36V0.600098Z" fill="white"/>
</mask>
<g mask="url(#mask1_1_1368)">
<path d="M31.6001 4.9002L32.2001 8.1002H29.8001L31.0001 5.0002L31.2001 4.4002L31.3001 3.9002C31.3001 4.0002 31.6001 4.9002 31.6001 4.9002ZM8.90005 12.0002L13.3001 1.1002H10.3001L7.60005 8.6002L7.30005 7.0002L6.30005 2.0002C6.20005 1.4002 5.70005 1.0002 4.90005 1.0002H0.400049L0.300049 1.2002C1.50005 1.4002 2.40005 1.8002 3.30005 2.4002L5.90005 12.1002H9.00005L8.90005 12.0002ZM15.6001 12.0002L17.4001 1.1002H14.6001L12.8001 12.2002H15.6001V12.0002ZM25.7001 8.5002C25.7001 7.3002 24.9001 6.3002 23.3001 5.4002C22.1001 4.9002 21.5001 4.5002 21.5001 4.1002C21.5001 3.5002 22.1001 3.2002 23.3001 3.2002C24.0001 3.2002 24.7001 3.2002 25.3001 3.7002H25.7001L26.0001 1.2002C25.1001 0.800195 24.3001 0.700195 23.4001 0.700195C22.5001 0.700195 21.7001 0.900195 21.0001 1.2002C20.3001 1.5002 19.7001 1.9002 19.2001 2.5002C18.8001 3.1002 18.6001 3.7002 18.6001 4.4002C18.6001 5.6002 19.4001 6.6002 21.2001 7.5002C22.1001 8.0002 22.6001 8.40019 22.6001 8.80019C22.6001 9.50019 22.0001 10.0002 20.9001 10.0002C20.0001 10.0002 19.0001 9.8002 18.2001 9.4002L17.8001 9.2002L17.3001 11.6002C18.3001 12.0002 19.4001 12.3002 20.5001 12.3002C21.8001 12.4002 23.0001 12.0002 24.0001 11.4002C25.2001 10.6002 25.7001 9.6002 25.7001 8.5002ZM35.7001 12.0002L33.4001 1.1002H31.2001C30.5001 1.1002 30.0001 1.3002 29.8001 2.0002L25.5001 12.2002H28.5001L29.0001 10.6002H32.8001L33.2001 12.3002H35.8001V12.0002H35.7001Z" fill="url(#paint0_linear_1_1368)"/>
</g>
</g>
</g>
</g>
<defs>
<linearGradient id="paint0_linear_1_1368" x1="1.58195" y1="6.5086" x2="35.245" y2="6.5086" gradientUnits="userSpaceOnUse">
<stop stop-color="#2C3572"/>
<stop offset="1" stop-color="#3C62AB"/>
</linearGradient>
<clipPath id="clip0_1_1368">
<rect width="36" height="13" fill="white"/>
</clipPath>
<clipPath id="clip1_1_1368">
<rect width="36" height="13" fill="white"/>
</clipPath>
</defs>
</svg>
