<svg width="36" height="36" viewBox="0 0 36 36" fill="none" xmlns="http://www.w3.org/2000/svg">
<rect x="0.5" y="0.5" width="35" height="35" rx="17.5" fill="white"/>
<rect x="0.5" y="0.5" width="35" height="35" rx="17.5" stroke="#E2E8F0"/>
<path d="M18.0001 10.5279C19.2055 10.5279 20.3255 10.8319 21.3601 11.4399C22.3735 12.0266 23.1735 12.8266 23.7601 13.8399C24.3681 14.8746 24.6721 15.9946 24.6721 17.1999C24.6721 18.4053 24.3681 19.5253 23.7601 20.5599C23.1735 21.5733 22.3735 22.3733 21.3601 22.9599C20.3255 23.5679 19.2055 23.8719 18.0001 23.8719C17.4028 23.8719 16.8215 23.7919 16.2561 23.6319C15.6908 23.4719 15.1575 23.2479 14.6561 22.9599L11.3441 23.8719L12.2401 20.5599C11.6321 19.5146 11.3281 18.3919 11.3281 17.1919C11.3281 15.9919 11.6321 14.8746 12.2401 13.8399C12.8268 12.8266 13.6268 12.0266 14.6401 11.4399C15.6748 10.8319 16.7948 10.5279 18.0001 10.5279ZM15.6001 14.0639C15.4828 14.0853 15.4001 14.1066 15.3521 14.1279C15.3041 14.1493 15.2375 14.2026 15.1521 14.2879C15.0988 14.3413 15.0401 14.4106 14.9761 14.4959C14.7201 14.8479 14.5975 15.2213 14.6081 15.6159C14.6081 15.9146 14.6775 16.2293 14.8161 16.5599C15.1041 17.1893 15.5415 17.7973 16.1281 18.3839C16.3201 18.5759 16.4641 18.7146 16.5601 18.7999C17.3068 19.4613 18.1601 19.9146 19.1201 20.1599L19.5041 20.2239C19.6748 20.2239 19.7975 20.2186 19.8721 20.2079C20.0321 20.2079 20.2188 20.1599 20.4321 20.0639L20.6881 19.9199L20.7681 19.8559C20.8321 19.8133 20.9015 19.7493 20.9761 19.6639C21.0508 19.5786 21.1041 19.5093 21.1361 19.4559C21.1788 19.3599 21.2215 19.1999 21.2641 18.9759C21.2748 18.9013 21.2748 18.8319 21.2641 18.7679V18.7199C21.2641 18.6879 21.2508 18.6559 21.2241 18.6239C21.1975 18.5919 21.1681 18.5653 21.1361 18.5439L19.8241 17.9519C19.7921 17.9413 19.7521 17.9333 19.7041 17.9279C19.6561 17.9226 19.6081 17.9279 19.5601 17.9439C19.5121 17.9599 19.4721 17.9839 19.4401 18.0159L19.3601 18.1119C19.2641 18.2186 19.1148 18.3946 18.9121 18.6399C18.8801 18.7039 18.8161 18.7359 18.7201 18.7359L18.6401 18.7039C18.5975 18.6933 18.5655 18.6826 18.5441 18.6719L18.3841 18.6079C17.9895 18.4266 17.6375 18.2026 17.3281 17.9359C17.2748 17.8933 17.1948 17.8186 17.0881 17.7119C16.8215 17.4559 16.5921 17.1733 16.4001 16.8639C16.4001 16.8426 16.3895 16.8213 16.3681 16.7999C16.3255 16.7359 16.3015 16.6853 16.2961 16.6479C16.2908 16.6106 16.2935 16.5706 16.3041 16.5279L16.3361 16.4799L16.5761 16.2079L16.7521 15.9679C16.8268 15.8399 16.8481 15.7173 16.8161 15.5999L16.2401 14.2399C16.1868 14.1546 16.0961 14.1013 15.9681 14.0799L15.8561 14.0639H15.6001Z" fill="#25D366"/>
</svg>
