<svg width="60" height="60" viewBox="0 0 60 60" fill="none" xmlns="http://www.w3.org/2000/svg">
<path d="M45.7973 18.7788L42.8898 21.6863C44.9434 24.8681 45.7473 28.697 45.1469 32.4361C44.5465 36.1751 42.5841 39.5599 39.6376 41.9388C36.691 44.3176 32.9687 45.5224 29.1871 45.3212C25.4055 45.1199 21.832 43.5269 19.1546 40.8487C16.4772 38.1706 14.8851 34.5967 14.6849 30.815C14.4847 27.0334 15.6905 23.3113 18.0702 20.3654C20.4498 17.4196 23.8351 15.4581 27.5743 14.8587C31.3135 14.2593 35.1423 15.0643 38.3236 17.1188L41.2298 14.2125C37.2698 11.3985 32.397 10.1748 27.5773 10.784C22.7576 11.3932 18.3426 13.7907 15.2072 17.5016C12.0718 21.2124 10.445 25.9658 10.6489 30.8196C10.8529 35.6733 12.8729 40.2734 16.3085 43.7081C19.7442 47.1428 24.3448 49.1615 29.1986 49.3642C34.0525 49.5668 38.8053 47.9386 42.5153 44.8023C46.2253 41.6659 48.6217 37.2502 49.2296 32.4303C49.8374 27.6104 48.6124 22.738 45.7973 18.7788Z" fill="#0067B2"/>
<path d="M7.28551 30.4106C7.17787 30.4104 7.0747 30.3676 6.99865 30.2914C6.9226 30.2152 6.87988 30.112 6.87988 30.0044C6.88683 23.8734 9.32544 17.9955 13.6607 13.6602C17.996 9.32492 23.8739 6.88631 30.0049 6.87936C30.1126 6.87936 30.216 6.92217 30.2921 6.99835C30.3683 7.07454 30.4111 7.17787 30.4111 7.28561C30.4111 7.39336 30.3683 7.49669 30.2921 7.57288C30.216 7.64906 30.1126 7.69186 30.0049 7.69186C24.0893 7.69881 18.418 10.0518 14.235 14.2347C10.052 18.4176 7.69887 24.0888 7.69176 30.0044C7.69201 30.0578 7.68167 30.1107 7.66134 30.1601C7.64101 30.2095 7.6111 30.2544 7.57332 30.2922C7.53555 30.33 7.49067 30.3599 7.44127 30.3802C7.39187 30.4005 7.33893 30.4109 7.28551 30.4106ZM32.4393 7.69186H31.6274C31.5196 7.69186 31.4163 7.64906 31.3401 7.57288C31.2639 7.49669 31.2211 7.39336 31.2211 7.28561C31.2211 7.17787 31.2639 7.07454 31.3401 6.99835C31.4163 6.92217 31.5196 6.87936 31.6274 6.87936H32.4393C32.547 6.87936 32.6503 6.92217 32.7265 6.99835C32.8027 7.07454 32.8455 7.17787 32.8455 7.28561C32.8455 7.39336 32.8027 7.49669 32.7265 7.57288C32.6503 7.64906 32.547 7.69186 32.4393 7.69186ZM30.0049 53.1294C29.9012 53.1236 29.8037 53.0784 29.7323 53.0029C29.6609 52.9275 29.6212 52.8276 29.6212 52.7237C29.6212 52.6199 29.6609 52.52 29.7323 52.4446C29.8037 52.3691 29.9012 52.3239 30.0049 52.3181C35.9207 52.3115 41.5924 49.9585 45.7756 45.7755C49.9587 41.5924 52.3118 35.9208 52.3186 30.005C52.3244 29.9013 52.3696 29.8038 52.4451 29.7324C52.5205 29.661 52.6204 29.6213 52.7243 29.6213C52.8281 29.6213 52.928 29.661 53.0034 29.7324C53.0789 29.8038 53.1241 29.9013 53.1299 30.005C53.1229 36.136 50.6843 42.0139 46.3491 46.3492C42.0138 50.6844 36.1359 53.123 30.0049 53.13V53.1294ZM28.3824 53.1294H27.5711C27.4674 53.1236 27.3699 53.0784 27.2985 53.0029C27.2272 52.9275 27.1874 52.8276 27.1874 52.7237C27.1874 52.6199 27.2272 52.52 27.2985 52.4446C27.3699 52.3691 27.4674 52.3239 27.5711 52.3181H28.3824C28.4873 52.3222 28.5865 52.3668 28.6593 52.4425C28.7321 52.5182 28.7727 52.6191 28.7727 52.7241C28.7727 52.829 28.7321 52.9299 28.6593 53.0056C28.5865 53.0813 28.4873 53.1259 28.3824 53.13V53.1294ZM42.9874 9.31436H39.7436C39.6399 9.30861 39.5424 9.26336 39.471 9.18792C39.3997 9.11249 39.3599 9.01258 39.3599 8.90874C39.3599 8.80489 39.3997 8.70499 39.471 8.62955C39.5424 8.55412 39.6399 8.50887 39.7436 8.50311H42.9874C43.095 8.50311 43.1981 8.54585 43.2742 8.62192C43.3503 8.69799 43.393 8.80116 43.393 8.90874C43.393 9.01632 43.3503 9.11949 43.2742 9.19556C43.1981 9.27163 43.095 9.31436 42.9874 9.31436Z" fill="#263238"/>
<path d="M41.6505 10.7094C41.5462 10.7092 41.4459 10.6689 41.3705 10.5969C41.3343 10.5616 41.3055 10.5196 41.2856 10.4731C41.2658 10.4267 41.2553 10.3768 41.2549 10.3263V7.2625C41.2549 7.16063 41.2968 7.06313 41.3711 6.99125C41.4462 6.91874 41.5465 6.8782 41.6508 6.8782C41.7552 6.8782 41.8555 6.91874 41.9305 6.99125C42.0055 7.06313 42.0468 7.16063 42.0468 7.2625V10.325C42.0471 10.3758 42.037 10.4262 42.0172 10.4729C41.9973 10.5197 41.968 10.5619 41.9311 10.5969C41.856 10.6697 41.7551 10.7105 41.6505 10.7094ZM52.7343 18.755H49.5686C49.4642 18.7552 49.3638 18.7149 49.2886 18.6425C49.2523 18.6074 49.2234 18.5653 49.2036 18.5187C49.1839 18.4722 49.1737 18.4221 49.1737 18.3716C49.1737 18.321 49.1839 18.271 49.2036 18.2244C49.2234 18.1779 49.2523 18.1358 49.2886 18.1006C49.3638 18.0282 49.4642 17.9879 49.5686 17.9881H52.7336C52.8386 17.9881 52.9393 18.0288 53.0136 18.1006C53.0501 18.1358 53.0792 18.1779 53.099 18.2245C53.1189 18.2711 53.1292 18.3212 53.1293 18.3719C53.1291 18.4224 53.1188 18.4725 53.099 18.5189C53.0791 18.5654 53.0501 18.6075 53.0136 18.6425C52.9384 18.7149 52.8386 18.7552 52.7343 18.755Z" fill="#263238"/>
<path d="M50.9424 20.63C50.9009 20.6298 50.86 20.62 50.823 20.6013C50.7838 20.5816 50.7491 20.5539 50.7211 20.52C50.6915 20.4838 50.6686 20.4425 50.6536 20.3981C50.6378 20.3519 50.6297 20.3033 50.6299 20.2544V17.255C50.6299 17.1556 50.663 17.06 50.7218 16.99C50.7481 16.9565 50.7816 16.9293 50.8197 16.9103C50.8579 16.8913 50.8998 16.8809 50.9424 16.88C51.0255 16.88 51.1049 16.9194 51.1636 16.99C51.2238 17.0651 51.256 17.1588 51.2549 17.255V20.255C51.255 20.3039 51.247 20.3525 51.2311 20.3988C51.2161 20.4429 51.1932 20.484 51.1636 20.52C51.1359 20.5538 51.1014 20.5815 51.0624 20.6013C51.0252 20.6201 50.9841 20.6299 50.9424 20.63Z" fill="#263238"/>
<path d="M52.5049 12.1925L47.8174 16.88L43.7155 16.2944L43.1299 12.1925L47.8174 7.505L48.4036 11.6063L52.5049 12.1925Z" fill="#EFF4F7"/>
<path d="M47.5032 17.505C47.4843 17.5051 47.4655 17.5037 47.4469 17.5006L43.4282 16.9269C43.341 16.9145 43.2602 16.8742 43.1979 16.812C43.1355 16.7498 43.0951 16.669 43.0826 16.5819L42.5088 12.5619C42.5001 12.4993 42.506 12.4355 42.526 12.3755C42.5461 12.3155 42.5798 12.261 42.6244 12.2163L47.2163 7.62501C47.2696 7.5715 47.3368 7.53391 47.4102 7.51646C47.4837 7.49901 47.5606 7.50238 47.6323 7.52621C47.7039 7.55003 47.7675 7.59336 47.816 7.65133C47.8644 7.7093 47.8956 7.77961 47.9063 7.85438L48.4376 11.5713L52.1538 12.1025C52.2289 12.1125 52.2997 12.1434 52.3582 12.1917C52.4166 12.24 52.4603 12.3037 52.4844 12.3756C52.5084 12.4474 52.5118 12.5246 52.4941 12.5983C52.4764 12.6721 52.4384 12.7393 52.3844 12.7925L47.7907 17.3856C47.7529 17.4234 47.7081 17.4533 47.6588 17.4737C47.6094 17.4941 47.5566 17.5051 47.5032 17.505ZM43.8438 16.1663L47.3588 16.6688L51.2344 12.7938L48.0194 12.335C47.9323 12.3226 47.8516 12.2823 47.7894 12.2201C47.7272 12.1578 47.6868 12.0771 47.6744 11.99L47.2151 8.77563L43.3413 12.65L43.8438 16.1663Z" fill="#263238"/>
<path d="M43.6074 16.4025L43.3193 14.38L28.5849 29.1138C28.2832 29.4212 28.1152 29.8354 28.1172 30.2661C28.1193 30.6969 28.2913 31.1094 28.5959 31.414C28.9005 31.7186 29.313 31.8906 29.7438 31.8927C30.1745 31.8948 30.5887 31.7267 30.8962 31.425L45.6299 16.6913L43.6074 16.4025Z" fill="#EFF4F7"/>
<path d="M29.5942 32.505C29.1811 32.5055 28.7772 32.3833 28.4335 32.1541C28.0899 31.9248 27.822 31.5987 27.6639 31.2171C27.5057 30.8354 27.4644 30.4154 27.5451 30.0103C27.6258 29.6052 27.825 29.2331 28.1173 28.9412L43.1767 13.8787C43.2315 13.8233 43.3007 13.7843 43.3764 13.7661C43.4522 13.7479 43.5315 13.7513 43.6055 13.7759C43.6794 13.8005 43.745 13.8453 43.7948 13.9052C43.8446 13.9651 43.8767 14.0378 43.8874 14.115L44.1386 15.8731L45.8961 16.1231C45.9732 16.134 46.0458 16.1662 46.1056 16.2161C46.1654 16.2661 46.2101 16.3317 46.2346 16.4056C46.2591 16.4796 46.2624 16.5589 46.2442 16.6347C46.2261 16.7104 46.1871 16.7796 46.1317 16.8344L31.0723 31.8969C30.8782 32.0907 30.6477 32.2442 30.394 32.3486C30.1404 32.4529 29.8685 32.5061 29.5942 32.505ZM43.1773 15.0612L28.7086 29.5312C28.4808 29.7676 28.3548 30.0839 28.3578 30.4122C28.3607 30.7405 28.4924 31.0545 28.7244 31.2867C28.9565 31.5189 29.2704 31.6508 29.5987 31.654C29.9269 31.6571 30.2433 31.5314 30.4798 31.3037L44.9486 16.8331L43.708 16.6556C43.6183 16.6428 43.5353 16.6013 43.4713 16.5373C43.4072 16.4733 43.3657 16.3902 43.353 16.3006L43.178 15.06L43.1773 15.0612Z" fill="#263238"/>
<path d="M40.4887 24.8188L37.3593 27.9481C37.8941 29.5367 37.8762 31.2593 37.3086 32.8364C36.7409 34.4134 35.6568 35.7523 34.2323 36.6356C32.8078 37.5189 31.1265 37.8947 29.4615 37.702C27.7965 37.5093 26.2455 36.7594 25.0604 35.5742C23.8753 34.3889 23.1257 32.8378 22.9332 31.1728C22.7407 29.5077 23.1168 27.8265 24.0002 26.4021C24.8837 24.9777 26.2227 23.8938 27.7998 23.3264C29.377 22.7589 31.0996 22.7413 32.6881 23.2763L35.8175 20.1469C33.3744 18.8257 30.5375 18.4281 27.8254 19.0267C25.1133 19.6253 22.7073 21.1801 21.0473 23.4068C19.3874 25.6335 18.5844 28.3834 18.7852 31.1535C18.986 33.9236 20.1772 36.5288 22.1409 38.4928C24.1047 40.4569 26.7098 41.6484 29.4799 41.8496C32.2499 42.0508 34.9999 41.2481 37.2268 39.5885C39.4537 37.9288 41.0089 35.523 41.6078 32.811C42.2068 30.099 41.8095 27.262 40.4887 24.8188Z" fill="#0067B2"/>
<path d="M42.6072 22.0125L39.7278 24.9519C40.9914 27.3442 41.3701 30.1058 40.7972 32.75C40.2247 35.3956 38.7385 37.7431 36.6097 39.3625C34.4941 40.978 31.8602 41.7629 29.2053 41.5687C26.5578 41.3719 24.0678 40.2094 22.191 38.2931C20.3073 36.3614 19.1708 33.8235 18.9841 31.1319C18.7901 28.4363 19.5559 25.759 21.146 23.5737C22.7322 21.4012 25.0322 19.8844 27.6241 19.3C30.2183 18.7162 32.9365 19.1052 35.2628 20.3931L38.1422 17.4537C35.0467 15.406 31.293 14.6003 27.6297 15.1975C23.9735 15.7969 20.6628 17.755 18.336 20.6956C16.0085 23.6369 14.8297 27.3525 15.026 31.1275C15.2216 34.9025 16.7791 38.4712 19.3972 41.1444C22.016 43.8175 25.5103 45.4075 29.2085 45.6081C32.9066 45.8087 36.5466 44.6062 39.4285 42.2306C42.3097 39.8556 44.2285 36.4769 44.8153 32.7437C45.4035 29.0173 44.6189 25.204 42.6072 22.0125Z" fill="white"/>
<path d="M30.0053 50.005C26.8578 50.0061 23.7545 49.2639 20.9481 47.8389C18.1417 46.4138 15.7115 44.3462 13.8553 41.8044C11.9986 39.2625 10.768 36.3184 10.2635 33.2114C9.75898 30.1044 9.99486 26.9221 10.9519 23.9235C11.909 20.9248 13.5603 18.1943 15.7714 15.954C17.9826 13.7137 20.6912 12.0269 23.6771 11.0306C26.6628 10.0353 29.8414 9.75908 32.954 10.2243C36.0667 10.6896 39.0255 11.8833 41.5896 13.7081C41.6779 13.7709 41.7376 13.8661 41.7557 13.9729C41.7737 14.0796 41.7486 14.1892 41.6859 14.2775C41.6232 14.3658 41.5279 14.4255 41.4211 14.4435C41.3144 14.4616 41.2048 14.4365 41.1165 14.3737C37.1967 11.5863 32.3725 10.3736 27.6006 10.9762C22.8286 11.5787 18.4573 13.9525 15.3534 17.6269C12.2485 21.3016 10.6372 26.0084 10.8385 30.815C11.0398 35.6215 13.039 40.1771 16.4403 43.5794C18.9777 46.1182 22.1768 47.8939 25.6735 48.7046C29.1702 49.5154 32.8243 49.3285 36.2201 48.1653C39.6158 47.0022 42.6171 44.9094 44.8823 42.125C47.1476 39.3406 48.586 35.9764 49.034 32.415C49.6363 27.6423 48.4242 22.8176 45.6378 18.8962C45.5812 18.8079 45.5608 18.7012 45.5807 18.5982C45.6007 18.4952 45.6594 18.4038 45.7449 18.343C45.8303 18.2821 45.9359 18.2564 46.0397 18.2712C46.1436 18.286 46.2377 18.3402 46.3028 18.4225C47.8944 20.6599 49.0081 23.2011 49.5746 25.8878C50.141 28.5745 50.1481 31.3491 49.5953 34.0386C49.0424 36.7281 47.9416 39.275 46.3614 41.5204C44.7811 43.7659 42.7553 45.6618 40.4103 47.09C37.2755 48.9989 33.6755 50.0075 30.0053 50.005Z" fill="#263238"/>
<path d="M30.0039 45.63C27.5746 45.6303 25.1788 45.0639 23.0068 43.9759C20.8348 42.8879 18.9465 41.3082 17.492 39.3625C15.6695 36.9244 14.5989 34.007 14.4115 30.9688C14.2241 27.9306 14.9282 24.9037 16.4372 22.2601C17.9463 19.6165 20.1947 17.4712 22.9061 16.0878C25.6176 14.7043 28.6741 14.1429 31.7002 14.4725C34.1148 14.7365 36.4345 15.56 38.4752 16.8775C38.5604 16.937 38.6192 17.0272 38.6392 17.1292C38.6592 17.2311 38.6389 17.3369 38.5826 17.4242C38.5262 17.5114 38.4382 17.5735 38.337 17.5972C38.2358 17.6209 38.1294 17.6044 38.0402 17.5513C35.189 15.7247 31.8005 14.9245 28.4335 15.2826C25.0664 15.6408 21.922 17.1358 19.5189 19.5213C17.4459 21.595 16.0341 24.2368 15.4622 27.1127C14.8903 29.9886 15.1838 32.9696 16.3058 35.6787C17.4277 38.3878 19.3276 40.7035 21.7653 42.333C24.203 43.9626 27.0692 44.8328 30.0014 44.8338C33.9327 44.8338 37.7039 43.2713 40.4845 40.4913C42.8699 38.0873 44.3649 34.9423 44.7229 31.5747C45.0809 28.207 44.2806 24.818 42.4539 21.9663C42.3962 21.8769 42.3764 21.7683 42.3988 21.6643C42.4212 21.5604 42.4839 21.4696 42.5733 21.4119C42.6626 21.3542 42.7712 21.3344 42.8752 21.3568C42.9792 21.3791 43.07 21.4419 43.1277 21.5313C44.2684 23.2959 45.0414 25.2725 45.4004 27.3429C45.7593 29.4132 45.6969 31.5347 45.2168 33.5804C44.7366 35.626 43.8487 37.5538 42.6061 39.2482C41.3636 40.9427 39.7919 42.369 37.9852 43.4419C35.5699 44.8757 32.8127 45.632 30.0039 45.63Z" fill="#263238"/>
<path d="M30.0128 41.88C27.6627 41.8797 25.3653 41.1826 23.4113 39.8769C21.4572 38.5711 19.9342 36.7153 19.0347 34.544C18.1352 32.3728 17.8997 29.9836 18.358 27.6785C18.8162 25.3734 19.9476 23.2559 21.6091 21.5938C23.4248 19.794 25.7697 18.6238 28.2994 18.2548C30.8292 17.8858 33.4106 18.3376 35.6647 19.5438C35.7566 19.5976 35.8241 19.685 35.8527 19.7876C35.8814 19.8902 35.8691 19.9999 35.8184 20.0936C35.7677 20.1872 35.6826 20.2576 35.5811 20.2897C35.4795 20.3218 35.3694 20.3132 35.2741 20.2656C33.1762 19.1423 30.7734 18.7213 28.4186 19.0644C26.0638 19.4075 23.8811 20.4967 22.191 22.1719C21.1635 23.1994 20.3485 24.4191 19.7924 25.7616C19.2363 27.104 18.9501 28.5429 18.9501 29.9959C18.9501 31.449 19.2363 32.8878 19.7924 34.2303C20.3485 35.5728 21.1635 36.7925 22.191 37.82C23.2184 38.8475 24.4382 39.6625 25.7807 40.2186C27.1231 40.7746 28.562 41.0608 30.015 41.0608C31.4681 41.0608 32.9069 40.7746 34.2494 40.2186C35.5918 39.6625 36.8116 38.8475 37.8391 37.82C39.5138 36.1294 40.6027 33.9465 40.9458 31.5916C41.289 29.2368 40.8685 26.834 39.746 24.7356C39.7204 24.6884 39.7045 24.6365 39.699 24.5831C39.6935 24.5296 39.6986 24.4756 39.714 24.4241C39.7293 24.3727 39.7547 24.3247 39.7886 24.283C39.8225 24.2414 39.8643 24.2068 39.9116 24.1813C39.9589 24.1557 40.0107 24.1398 40.0642 24.1343C40.1176 24.1288 40.1716 24.1339 40.2231 24.1493C40.2746 24.1646 40.3225 24.19 40.3642 24.2239C40.4059 24.2578 40.4404 24.2996 40.466 24.3469C41.672 26.6005 42.1238 29.1813 41.7552 31.7106C41.3866 34.2399 40.2169 36.5844 38.4178 38.4C37.3166 39.5071 36.0067 40.3847 34.564 40.982C33.1212 41.5794 31.5743 41.8846 30.0128 41.88Z" fill="#263238"/>
<path d="M29.7121 38.1294C28.5767 38.1308 27.4547 37.8852 26.4239 37.4094C25.393 36.9337 24.4781 36.2393 23.7426 35.3744C23.0071 34.5096 22.4686 33.495 22.1646 32.4011C21.8606 31.3073 21.7983 30.1604 21.9821 29.04C22.2584 27.3513 23.0806 25.7997 24.3227 24.6227C25.5648 23.4457 27.1584 22.7082 28.8596 22.5231C29.988 22.4006 31.1297 22.5251 32.2052 22.8881C32.2588 22.9035 32.3087 22.9296 32.3519 22.9647C32.3951 22.9999 32.4307 23.0435 32.4566 23.0928C32.4826 23.1422 32.4982 23.1962 32.5027 23.2518C32.5071 23.3073 32.5002 23.3632 32.4825 23.416C32.4647 23.4688 32.4365 23.5175 32.3994 23.5591C32.3623 23.6007 32.3172 23.6344 32.2667 23.6581C32.2163 23.6817 32.1616 23.6949 32.1059 23.6969C32.0502 23.6988 31.9947 23.6895 31.9427 23.6694C30.4457 23.1654 28.8222 23.1823 27.3361 23.7175C25.8499 24.2527 24.5884 25.2747 23.7564 26.6175C23.135 27.6204 22.7769 28.7639 22.7153 29.9421C22.6537 31.1203 22.8906 32.2949 23.404 33.3571C23.9175 34.4193 24.6909 35.3347 25.6524 36.0183C26.614 36.7018 27.7326 37.1315 28.9046 37.2675C30.4738 37.449 32.0583 37.0945 33.4005 36.2617C34.7428 35.4289 35.7641 34.1666 36.2983 32.68C36.8333 31.1938 36.8496 29.57 36.3458 28.0725C36.3286 28.0213 36.3216 27.9672 36.3253 27.9133C36.3289 27.8594 36.3432 27.8067 36.3672 27.7583C36.3913 27.7099 36.4246 27.6667 36.4653 27.6312C36.506 27.5956 36.5533 27.5685 36.6046 27.5513C36.6558 27.534 36.7099 27.527 36.7638 27.5307C36.8177 27.5344 36.8704 27.5486 36.9188 27.5727C36.9672 27.5967 37.0104 27.63 37.0459 27.6707C37.0814 27.7115 37.1086 27.7588 37.1258 27.81C37.7256 29.5856 37.6677 31.5176 36.9625 33.2541C36.2573 34.9905 34.9519 36.4159 33.2839 37.2706C32.1785 37.8367 30.954 38.1311 29.7121 38.1294ZM43.6933 16.7281C43.6123 16.7278 43.5332 16.7035 43.4659 16.6584C43.3986 16.6134 43.3461 16.5494 43.3149 16.4746C43.2838 16.3999 43.2754 16.3176 43.2908 16.238C43.3062 16.1585 43.3446 16.0853 43.4014 16.0275L48.0621 11.365C48.1406 11.2946 48.2432 11.2569 48.3487 11.2598C48.4542 11.2626 48.5545 11.3058 48.6291 11.3804C48.7037 11.455 48.7469 11.5554 48.7498 11.6609C48.7527 11.7664 48.715 11.8689 48.6446 11.9475L43.9839 16.61C43.9457 16.6479 43.9003 16.678 43.8505 16.6983C43.8006 16.7187 43.7472 16.7291 43.6933 16.7288V16.7281Z" fill="#263238"/>
</svg>
